<svg width="44" height="40" viewBox="0 0 44 40" fill="none" xmlns="http://www.w3.org/2000/svg">
<path d="M36.6667 35.2941C38.6833 35.2941 40.315 33.1765 40.315 30.5882L40.3333 4.70588C40.3333 2.11765 38.6833 0 36.6667 0H7.33333C5.31667 0 3.66667 2.11765 3.66667 4.70588V30.5882C3.66667 33.1765 5.31667 35.2941 7.33333 35.2941H0C0 37.8824 1.65 40 3.66667 40H40.3333C42.35 40 44 37.8824 44 35.2941H36.6667ZM9.16667 4.70588H34.8333C35.8417 4.70588 36.6667 5.76471 36.6667 7.05882V28.2353C36.6667 29.5294 35.8417 30.5882 34.8333 30.5882H9.16667C8.15833 30.5882 7.33333 29.5294 7.33333 28.2353V7.05882C7.33333 5.76471 8.15833 4.70588 9.16667 4.70588ZM22 37.6471C20.9917 37.6471 20.1667 36.5882 20.1667 35.2941C20.1667 34 20.9917 32.9412 22 32.9412C23.0083 32.9412 23.8333 34 23.8333 35.2941C23.8333 36.5882 23.0083 37.6471 22 37.6471Z" fill="#FF4900"/>
</svg>
