<svg width="44" height="40" viewBox="0 0 44 40" fill="none" xmlns="http://www.w3.org/2000/svg">
<path d="M29.3333 40H39.1111C41.8 40 44 38.2 44 36V30C44 27.8 41.8 26 39.1111 26H36.6667V22C36.6667 19.8 34.4667 18 31.7778 18H24.4444V14H26.8889C29.5778 14 31.7778 12.2 31.7778 10V4C31.7778 1.8 29.5778 0 26.8889 0H17.1111C14.4222 0 12.2222 1.8 12.2222 4V10C12.2222 12.2 14.4222 14 17.1111 14H19.5556V18H12.2222C9.53333 18 7.33333 19.8 7.33333 22V26H4.88889C2.2 26 0 27.8 0 30V36C0 38.2 2.2 40 4.88889 40H14.6667C17.3556 40 19.5556 38.2 19.5556 36V30C19.5556 27.8 17.3556 26 14.6667 26H12.2222V22H31.7778V26H29.3333C26.6444 26 24.4444 27.8 24.4444 30V36C24.4444 38.2 26.6444 40 29.3333 40Z" fill="#FF4900"/>
</svg>
