<svg width="65" height="65" viewBox="0 0 65 65" fill="none" xmlns="http://www.w3.org/2000/svg">
<circle cx="32.5" cy="32.5" r="31.5" stroke="#FF4900" stroke-width="2"/>
<path d="M45.0909 23.45C46.0449 23.45 46.8182 22.5994 46.8182 21.55C46.8182 20.5007 46.0449 19.65 45.0909 19.65C44.137 19.65 43.3636 20.5007 43.3636 21.55C43.3636 22.5994 44.137 23.45 45.0909 23.45Z" fill="#FF4900"/>
<path d="M38.1819 23.45C39.1358 23.45 39.9091 22.5994 39.9091 21.55C39.9091 20.5007 39.1358 19.65 38.1819 19.65C37.2279 19.65 36.4546 20.5007 36.4546 21.55C36.4546 22.5994 37.2279 23.45 38.1819 23.45Z" fill="#FF4900"/>
<path d="M41.6191 26.3C39.2354 26.3 37.3009 27.896 37.3009 29.872H45.9373C45.9373 27.896 44.0027 26.3 41.6191 26.3Z" fill="#FF4900"/>
<path d="M14 39.6C14 45.889 18.6464 51 24.3636 51C30.0809 51 34.7273 45.889 34.7273 39.6V26.3H14V39.6ZM17.4545 30.1H31.2727V39.6C31.2727 43.799 28.1809 47.2 24.3636 47.2C20.5464 47.2 17.4545 43.799 17.4545 39.6V30.1Z" fill="#FF4900"/>
<path d="M31.2727 13V23.45H34.7273V16.8H48.5454V26.3C48.5454 30.499 45.4536 33.9 41.6363 33.9C39.9954 33.9 38.51 33.235 37.3182 32.19V36.655C38.6309 37.32 40.0991 37.7 41.6363 37.7C47.3536 37.7 52 32.589 52 26.3V13H31.2727Z" fill="#FF4900"/>
<path d="M20.909 36.75C21.863 36.75 22.6363 35.8994 22.6363 34.85C22.6363 33.8007 21.863 32.95 20.909 32.95C19.9551 32.95 19.1818 33.8007 19.1818 34.85C19.1818 35.8994 19.9551 36.75 20.909 36.75Z" fill="#FF4900"/>
<path d="M27.8182 36.75C28.7722 36.75 29.5455 35.8994 29.5455 34.85C29.5455 33.8007 28.7722 32.95 27.8182 32.95C26.8643 32.95 26.0909 33.8007 26.0909 34.85C26.0909 35.8994 26.8643 36.75 27.8182 36.75Z" fill="#FF4900"/>
<path d="M24.3636 43.172C26.7472 43.172 28.6818 41.576 28.6818 39.6H20.0454C20.0454 41.576 21.98 43.172 24.3636 43.172Z" fill="#FF4900"/>
</svg>
