<svg width="65" height="65" viewBox="0 0 65 65" fill="none" xmlns="http://www.w3.org/2000/svg">
<circle cx="32.5" cy="32.5" r="31.5" stroke="#FF4900" stroke-width="2"/>
<path d="M26.8182 28.2V43.4L38.9091 35.8L26.8182 28.2ZM47.5455 20.6H34.4527L40.1355 14.349L38.9091 13L32 20.6H31.9482L25.0391 13L23.8473 14.349L29.5127 20.6H16.4545C14.5545 20.6 13 22.31 13 24.4V47.2C13 49.29 14.5545 51 16.4545 51H47.5455C49.4455 51 51 49.29 51 47.2V24.4C51 22.31 49.4455 20.6 47.5455 20.6ZM47.5455 47.2H16.4545V24.4H47.5455V47.2Z" fill="#FF4900"/>
</svg>
