<svg width="65" height="65" viewBox="0 0 65 65" fill="none" xmlns="http://www.w3.org/2000/svg">
<circle cx="32.5" cy="32.5" r="31.5" stroke="#FF4900" stroke-width="2"/>
<path d="M43.7778 21.2222H40.5556V18H24.4444V21.2222H21.2222C19.45 21.2222 18 22.6722 18 24.4444V26.0556C18 30.1639 21.0933 33.515 25.0728 34.0144C26.0878 36.4311 28.2628 38.2517 30.8889 38.7833V43.7778H24.4444V47H40.5556V43.7778H34.1111V38.7833C36.7372 38.2517 38.9122 36.4311 39.9272 34.0144C43.9067 33.515 47 30.1639 47 26.0556V24.4444C47 22.6722 45.55 21.2222 43.7778 21.2222ZM21.2222 26.0556V24.4444H24.4444V30.5989C22.5756 29.9222 21.2222 28.15 21.2222 26.0556ZM32.5 35.7222C29.8417 35.7222 27.6667 33.5472 27.6667 30.8889V21.2222H37.3333V30.8889C37.3333 33.5472 35.1583 35.7222 32.5 35.7222ZM43.7778 26.0556C43.7778 28.15 42.4244 29.9222 40.5556 30.5989V24.4444H43.7778V26.0556Z" fill="#FF4900"/>
</svg>
