<svg width="44" height="40" viewBox="0 0 44 40" fill="none" xmlns="http://www.w3.org/2000/svg">
<path d="M39.6 0H4.4C1.98 0 0 1.8 0 4V40L8.8 32H39.6C42.02 32 44 30.2 44 28V4C44 1.8 42.02 0 39.6 0Z" fill="#FF4900"/>
<path d="M22.3443 13.6346C19.7388 13.0189 18.9009 12.3824 18.9009 11.3911C18.9009 10.2537 20.0602 9.46068 22 9.46068C23.6299 9.46068 24.4449 10.0242 24.7433 10.9215C24.881 11.3389 25.2598 11.652 25.7419 11.652H26.0863C26.8438 11.652 27.3833 10.9737 27.1193 10.3268C26.6372 9.09546 25.5123 8.07285 23.7217 7.67633V6.95633C23.7217 6.09024 22.9527 5.39111 22 5.39111C21.0473 5.39111 20.2783 6.09024 20.2783 6.95633V7.64503C18.0515 8.08329 16.2609 9.39807 16.2609 11.412C16.2609 13.8224 18.4532 15.0224 21.6556 15.7215C24.5252 16.3476 25.0991 17.2659 25.0991 18.2363C25.0991 18.9563 24.5367 20.1042 22 20.1042C20.1061 20.1042 19.1304 19.4885 18.7516 18.612C18.5795 18.205 18.1892 17.9129 17.7186 17.9129H17.3972C16.6282 17.9129 16.0887 18.6224 16.3756 19.2694C17.0299 20.7198 18.5565 21.5755 20.2783 21.9094V22.6085C20.2783 23.4746 21.0473 24.1737 22 24.1737C22.9527 24.1737 23.7217 23.4746 23.7217 22.6085V21.9302C25.96 21.5442 27.7391 20.365 27.7391 18.2259C27.7391 15.2624 24.9499 14.2502 22.3443 13.6346Z" fill="black"/>
</svg>
